<mxfile host="drawio-plugin" modified="2023-10-01T12:32:15.594Z" agent="5.0 (Windows NT 10.0; Win64; x64) AppleWebKit/537.36 (KHTML, like Gecko) Chrome/111.0.0.0 Safari/537.36" version="20.5.3" etag="BoJ42P8kZ-9xfSxmV8i9" type="embed"><diagram id="yXljvI6h0dhuUie98vZK" name="Page-1"><mxGraphModel dx="511" dy="571" grid="1" gridSize="10" guides="1" tooltips="1" connect="1" arrows="1" fold="1" page="1" pageScale="1" pageWidth="850" pageHeight="1100" math="0" shadow="0"><root><mxCell id="0"/><mxCell id="1" parent="0"/><mxCell id="2" value="Game" style="whiteSpace=wrap;html=1;align=center;" vertex="1" parent="1"><mxGeometry x="270" y="380" width="100" height="40" as="geometry"/></mxCell><mxCell id="3" value="Player" style="whiteSpace=wrap;html=1;align=center;" vertex="1" parent="1"><mxGeometry x="660" y="380" width="100" height="40" as="geometry"/></mxCell><mxCell id="4" value="Round" style="whiteSpace=wrap;html=1;align=center;" vertex="1" parent="1"><mxGeometry x="270" y="870" width="100" height="40" as="geometry"/></mxCell><mxCell id="5" value="Set" style="whiteSpace=wrap;html=1;align=center;" vertex="1" parent="1"><mxGeometry x="270" y="610" width="100" height="40" as="geometry"/></mxCell><mxCell id="6" value="Card" style="whiteSpace=wrap;html=1;align=center;" vertex="1" parent="1"><mxGeometry x="660" y="180" width="100" height="40" as="geometry"/></mxCell><mxCell id="7" value="Has" style="shape=rhombus;perimeter=rhombusPerimeter;whiteSpace=wrap;html=1;align=center;" vertex="1" parent="1"><mxGeometry x="260" y="480" width="120" height="60" as="geometry"/></mxCell><mxCell id="10" value="" style="endArrow=none;html=1;rounded=0;" edge="1" parent="1" source="2" target="7"><mxGeometry relative="1" as="geometry"><mxPoint x="400" y="430" as="sourcePoint"/><mxPoint x="560" y="430" as="targetPoint"/></mxGeometry></mxCell><mxCell id="11" value="1" style="resizable=0;html=1;align=right;verticalAlign=bottom;" connectable="0" vertex="1" parent="10"><mxGeometry x="1" relative="1" as="geometry"><mxPoint y="-20" as="offset"/></mxGeometry></mxCell><mxCell id="12" value="" style="endArrow=none;html=1;rounded=0;" edge="1" parent="1" source="5" target="7"><mxGeometry relative="1" as="geometry"><mxPoint x="400" y="430" as="sourcePoint"/><mxPoint x="560" y="430" as="targetPoint"/></mxGeometry></mxCell><mxCell id="13" value="N" style="resizable=0;html=1;align=right;verticalAlign=bottom;" connectable="0" vertex="1" parent="12"><mxGeometry x="1" relative="1" as="geometry"><mxPoint y="40" as="offset"/></mxGeometry></mxCell><mxCell id="14" value="Has" style="shape=rhombus;perimeter=rhombusPerimeter;whiteSpace=wrap;html=1;align=center;" vertex="1" parent="1"><mxGeometry x="260" y="730" width="120" height="60" as="geometry"/></mxCell><mxCell id="15" value="" style="endArrow=none;html=1;rounded=0;" edge="1" parent="1" target="14" source="5"><mxGeometry relative="1" as="geometry"><mxPoint x="450" y="630" as="sourcePoint"/><mxPoint x="690" y="640" as="targetPoint"/></mxGeometry></mxCell><mxCell id="16" value="1" style="resizable=0;html=1;align=right;verticalAlign=bottom;" connectable="0" vertex="1" parent="15"><mxGeometry x="1" relative="1" as="geometry"><mxPoint y="-20" as="offset"/></mxGeometry></mxCell><mxCell id="17" value="" style="endArrow=none;html=1;rounded=0;" edge="1" parent="1" target="14" source="4"><mxGeometry relative="1" as="geometry"><mxPoint x="450" y="820" as="sourcePoint"/><mxPoint x="690" y="640" as="targetPoint"/></mxGeometry></mxCell><mxCell id="18" value="N" style="resizable=0;html=1;align=right;verticalAlign=bottom;" connectable="0" vertex="1" parent="17"><mxGeometry x="1" relative="1" as="geometry"><mxPoint y="40" as="offset"/></mxGeometry></mxCell><mxCell id="19" value="Has" style="shape=rhombus;perimeter=rhombusPerimeter;whiteSpace=wrap;html=1;align=center;" vertex="1" parent="1"><mxGeometry x="460" y="370" width="120" height="60" as="geometry"/></mxCell><mxCell id="20" value="" style="endArrow=none;html=1;rounded=0;" edge="1" parent="1" source="2" target="19"><mxGeometry relative="1" as="geometry"><mxPoint x="380" y="399.64" as="sourcePoint"/><mxPoint x="470" y="399.64" as="targetPoint"/></mxGeometry></mxCell><mxCell id="21" value="1" style="resizable=0;html=1;align=right;verticalAlign=bottom;" connectable="0" vertex="1" parent="20"><mxGeometry x="1" relative="1" as="geometry"><mxPoint x="-40" as="offset"/></mxGeometry></mxCell><mxCell id="23" value="" style="endArrow=none;html=1;rounded=0;" edge="1" parent="1" source="19" target="3"><mxGeometry relative="1" as="geometry"><mxPoint x="520" y="420" as="sourcePoint"/><mxPoint x="680" y="420" as="targetPoint"/></mxGeometry></mxCell><mxCell id="24" value="N" style="resizable=0;html=1;align=right;verticalAlign=bottom;" connectable="0" vertex="1" parent="23"><mxGeometry x="1" relative="1" as="geometry"><mxPoint x="-40" as="offset"/></mxGeometry></mxCell><mxCell id="25" value="Has" style="shape=rhombus;perimeter=rhombusPerimeter;whiteSpace=wrap;html=1;align=center;" vertex="1" parent="1"><mxGeometry x="650" y="270" width="120" height="60" as="geometry"/></mxCell><mxCell id="26" value="" style="endArrow=none;html=1;rounded=0;" edge="1" parent="1" source="25" target="3"><mxGeometry relative="1" as="geometry"><mxPoint x="590" y="410" as="sourcePoint"/><mxPoint x="670" y="410" as="targetPoint"/></mxGeometry></mxCell><mxCell id="27" value="N" style="resizable=0;html=1;align=right;verticalAlign=bottom;" connectable="0" vertex="1" parent="26"><mxGeometry x="1" relative="1" as="geometry"><mxPoint y="-120" as="offset"/></mxGeometry></mxCell><mxCell id="28" value="" style="endArrow=none;html=1;rounded=0;" edge="1" parent="1" source="25" target="6"><mxGeometry relative="1" as="geometry"><mxPoint x="450" y="370" as="sourcePoint"/><mxPoint x="610" y="370" as="targetPoint"/></mxGeometry></mxCell><mxCell id="29" value="1" style="resizable=0;html=1;align=right;verticalAlign=bottom;" connectable="0" vertex="1" parent="28"><mxGeometry x="1" relative="1" as="geometry"><mxPoint y="150" as="offset"/></mxGeometry></mxCell><mxCell id="30" value="Has" style="shape=rhombus;perimeter=rhombusPerimeter;whiteSpace=wrap;html=1;align=center;" vertex="1" parent="1"><mxGeometry x="260" y="170" width="120" height="60" as="geometry"/></mxCell><mxCell id="31" value="" style="endArrow=none;html=1;rounded=0;" edge="1" parent="1" source="2" target="30"><mxGeometry relative="1" as="geometry"><mxPoint x="430" y="370" as="sourcePoint"/><mxPoint x="590" y="370" as="targetPoint"/></mxGeometry></mxCell><mxCell id="32" value="1" style="resizable=0;html=1;align=right;verticalAlign=bottom;" connectable="0" vertex="1" parent="31"><mxGeometry x="1" relative="1" as="geometry"><mxPoint y="80" as="offset"/></mxGeometry></mxCell><mxCell id="33" value="" style="endArrow=none;html=1;rounded=0;" edge="1" parent="1" source="30" target="6"><mxGeometry relative="1" as="geometry"><mxPoint x="430" y="370" as="sourcePoint"/><mxPoint x="590" y="370" as="targetPoint"/></mxGeometry></mxCell><mxCell id="34" value="N" style="resizable=0;html=1;align=right;verticalAlign=bottom;" connectable="0" vertex="1" parent="33"><mxGeometry x="1" relative="1" as="geometry"><mxPoint x="-140" as="offset"/></mxGeometry></mxCell><mxCell id="35" value="Value" style="ellipse;whiteSpace=wrap;html=1;align=center;" vertex="1" parent="1"><mxGeometry x="660" y="90" width="100" height="40" as="geometry"/></mxCell><mxCell id="36" value="Suit" style="ellipse;whiteSpace=wrap;html=1;align=center;" vertex="1" parent="1"><mxGeometry x="800" y="180" width="100" height="40" as="geometry"/></mxCell><mxCell id="38" value="" style="endArrow=none;html=1;rounded=0;" edge="1" parent="1" source="6" target="35"><mxGeometry relative="1" as="geometry"><mxPoint x="650" y="220" as="sourcePoint"/><mxPoint x="810" y="220" as="targetPoint"/></mxGeometry></mxCell><mxCell id="39" value="" style="endArrow=none;html=1;rounded=0;" edge="1" parent="1" source="6" target="36"><mxGeometry relative="1" as="geometry"><mxPoint x="720" y="190" as="sourcePoint"/><mxPoint x="720" y="140" as="targetPoint"/></mxGeometry></mxCell><mxCell id="40" value="Penalty points" style="ellipse;whiteSpace=wrap;html=1;align=center;" vertex="1" parent="1"><mxGeometry x="860" y="350" width="100" height="40" as="geometry"/></mxCell><mxCell id="41" value="HasFolded" style="ellipse;whiteSpace=wrap;html=1;align=center;" vertex="1" parent="1"><mxGeometry x="870" y="420" width="100" height="40" as="geometry"/></mxCell><mxCell id="42" value="Name" style="ellipse;whiteSpace=wrap;html=1;align=center;" vertex="1" parent="1"><mxGeometry x="820" y="290" width="100" height="40" as="geometry"/></mxCell><mxCell id="43" value="HasDirtyLaundry" style="ellipse;whiteSpace=wrap;html=1;align=center;" vertex="1" parent="1"><mxGeometry x="870" y="480" width="100" height="40" as="geometry"/></mxCell><mxCell id="44" value="HasWhiteLaundry" style="ellipse;whiteSpace=wrap;html=1;align=center;" vertex="1" parent="1"><mxGeometry x="840" y="540" width="100" height="40" as="geometry"/></mxCell><mxCell id="45" value="HasPoverty" style="ellipse;whiteSpace=wrap;html=1;align=center;" vertex="1" parent="1"><mxGeometry x="750" y="570" width="100" height="40" as="geometry"/></mxCell><mxCell id="46" value="PlaysWith&lt;br&gt;OpenCards" style="ellipse;whiteSpace=wrap;html=1;align=center;" vertex="1" parent="1"><mxGeometry x="640" y="570" width="100" height="40" as="geometry"/></mxCell><mxCell id="47" value="PlayedCards" style="ellipse;whiteSpace=wrap;html=1;align=center;" vertex="1" parent="1"><mxGeometry x="550" y="520" width="100" height="40" as="geometry"/></mxCell><mxCell id="49" value="Hand" style="ellipse;whiteSpace=wrap;html=1;align=center;" vertex="1" parent="1"><mxGeometry x="520" y="460" width="100" height="40" as="geometry"/></mxCell><mxCell id="50" value="" style="endArrow=none;html=1;rounded=0;" edge="1" parent="1" source="3" target="42"><mxGeometry relative="1" as="geometry"><mxPoint x="690" y="320" as="sourcePoint"/><mxPoint x="850" y="320" as="targetPoint"/></mxGeometry></mxCell><mxCell id="51" value="" style="endArrow=none;html=1;rounded=0;" edge="1" parent="1" source="3" target="40"><mxGeometry relative="1" as="geometry"><mxPoint x="770" y="410.0000000000001" as="sourcePoint"/><mxPoint x="870" y="410.0000000000001" as="targetPoint"/></mxGeometry></mxCell><mxCell id="52" value="" style="endArrow=none;html=1;rounded=0;" edge="1" parent="1" source="3" target="41"><mxGeometry relative="1" as="geometry"><mxPoint x="770" y="419.990043241756" as="sourcePoint"/><mxPoint x="875.3096108317202" y="441.0309945613834" as="targetPoint"/></mxGeometry></mxCell><mxCell id="53" value="" style="endArrow=none;html=1;rounded=0;" edge="1" parent="1" source="3" target="43"><mxGeometry relative="1" as="geometry"><mxPoint x="770" y="429.9851704847167" as="sourcePoint"/><mxPoint x="884.7057763424764" y="475.83346040044034" as="targetPoint"/></mxGeometry></mxCell><mxCell id="54" value="" style="endArrow=none;html=1;rounded=0;" edge="1" parent="1" source="3" target="44"><mxGeometry relative="1" as="geometry"><mxPoint x="753.3518621086589" y="430.0000000000001" as="sourcePoint"/><mxPoint x="892.331306528009" y="513.3413402625386" as="targetPoint"/></mxGeometry></mxCell><mxCell id="55" value="" style="endArrow=none;html=1;rounded=0;" edge="1" parent="1" source="3" target="45"><mxGeometry relative="1" as="geometry"><mxPoint x="745.0108598741083" y="430.0000000000001" as="sourcePoint"/><mxPoint x="897.7010686704732" y="552.0991277908297" as="targetPoint"/></mxGeometry></mxCell><mxCell id="56" value="" style="endArrow=none;html=1;rounded=0;" edge="1" parent="1" source="3" target="46"><mxGeometry relative="1" as="geometry"><mxPoint x="732.5" y="430.0000000000001" as="sourcePoint"/><mxPoint x="807.8732187481596" y="550.5971499970553" as="targetPoint"/></mxGeometry></mxCell><mxCell id="57" value="" style="endArrow=none;html=1;rounded=0;" edge="1" parent="1" source="3" target="47"><mxGeometry relative="1" as="geometry"><mxPoint x="720" y="430.0000000000001" as="sourcePoint"/><mxPoint x="720" y="550" as="targetPoint"/></mxGeometry></mxCell><mxCell id="58" value="" style="endArrow=none;html=1;rounded=0;" edge="1" parent="1" source="3" target="49"><mxGeometry relative="1" as="geometry"><mxPoint x="707.5" y="430.0000000000001" as="sourcePoint"/><mxPoint x="632.1267812518347" y="550.5971499970642" as="targetPoint"/></mxGeometry></mxCell><mxCell id="59" value="State" style="ellipse;whiteSpace=wrap;html=1;align=center;" vertex="1" parent="1"><mxGeometry x="170" y="450" width="100" height="40" as="geometry"/></mxCell><mxCell id="60" value="MaxPlayer&lt;br&gt;Amount" style="ellipse;whiteSpace=wrap;html=1;align=center;" vertex="1" parent="1"><mxGeometry x="110" y="380" width="100" height="40" as="geometry"/></mxCell><mxCell id="61" value="MinPlayer&lt;br&gt;Amount" style="ellipse;whiteSpace=wrap;html=1;align=center;" vertex="1" parent="1"><mxGeometry x="170" y="310" width="100" height="40" as="geometry"/></mxCell><mxCell id="62" value="" style="endArrow=none;html=1;rounded=0;" edge="1" parent="1" source="61" target="2"><mxGeometry relative="1" as="geometry"><mxPoint x="230" y="310" as="sourcePoint"/><mxPoint x="390" y="310" as="targetPoint"/></mxGeometry></mxCell><mxCell id="63" value="" style="endArrow=none;html=1;rounded=0;" edge="1" parent="1" source="60" target="2"><mxGeometry relative="1" as="geometry"><mxPoint x="218.51971605623453" y="372.7513542806846" as="sourcePoint"/><mxPoint x="280" y="393.33333333333337" as="targetPoint"/></mxGeometry></mxCell><mxCell id="64" value="" style="endArrow=none;html=1;rounded=0;" edge="1" parent="1" source="59" target="2"><mxGeometry relative="1" as="geometry"><mxPoint x="230" y="410.0000000000001" as="sourcePoint"/><mxPoint x="280" y="410.0000000000001" as="targetPoint"/></mxGeometry></mxCell><mxCell id="65" value="State" style="ellipse;whiteSpace=wrap;html=1;align=center;" vertex="1" parent="1"><mxGeometry x="140" y="560" width="100" height="40" as="geometry"/></mxCell><mxCell id="66" value="PenaltyPoints" style="ellipse;whiteSpace=wrap;html=1;align=center;" vertex="1" parent="1"><mxGeometry x="390" y="560" width="100" height="40" as="geometry"/></mxCell><mxCell id="67" value="LastKnocked&lt;br&gt;Player" style="ellipse;whiteSpace=wrap;html=1;align=center;" vertex="1" parent="1"><mxGeometry x="140" y="660" width="100" height="40" as="geometry"/></mxCell><mxCell id="68" value="Winner" style="ellipse;whiteSpace=wrap;html=1;align=center;" vertex="1" parent="1"><mxGeometry x="390" y="660" width="100" height="40" as="geometry"/></mxCell><mxCell id="69" value="" style="endArrow=none;html=1;rounded=0;" edge="1" parent="1" source="66" target="5"><mxGeometry relative="1" as="geometry"><mxPoint x="218.51971605623453" y="447.2486457193155" as="sourcePoint"/><mxPoint x="280" y="426.66666666666674" as="targetPoint"/></mxGeometry></mxCell><mxCell id="70" value="" style="endArrow=none;html=1;rounded=0;" edge="1" parent="1" source="65" target="5"><mxGeometry relative="1" as="geometry"><mxPoint x="227.44982812451815" y="603.2514776440603" as="sourcePoint"/><mxPoint x="280" y="622.1428571428573" as="targetPoint"/></mxGeometry></mxCell><mxCell id="71" value="" style="endArrow=none;html=1;rounded=0;" edge="1" parent="1" source="67" target="5"><mxGeometry relative="1" as="geometry"><mxPoint x="189.62509443426427" y="632.4445859327225" as="sourcePoint"/><mxPoint x="280" y="637.3684210526317" as="targetPoint"/></mxGeometry></mxCell><mxCell id="72" value="" style="endArrow=none;html=1;rounded=0;" edge="1" parent="1" source="68" target="5"><mxGeometry relative="1" as="geometry"><mxPoint x="186.51805121711186" y="662.6671052268591" as="sourcePoint"/><mxPoint x="280" y="647.8947368421054" as="targetPoint"/></mxGeometry></mxCell><mxCell id="73" value="StartedCard" style="ellipse;whiteSpace=wrap;html=1;align=center;" vertex="1" parent="1"><mxGeometry x="120" y="870" width="100" height="40" as="geometry"/></mxCell><mxCell id="74" value="StartedPlayer" style="ellipse;whiteSpace=wrap;html=1;align=center;" vertex="1" parent="1"><mxGeometry x="200" y="960" width="100" height="40" as="geometry"/></mxCell><mxCell id="75" value="ActivePlayer" style="ellipse;whiteSpace=wrap;html=1;align=center;" vertex="1" parent="1"><mxGeometry x="360" y="960" width="100" height="40" as="geometry"/></mxCell><mxCell id="76" value="Table" style="ellipse;whiteSpace=wrap;html=1;align=center;" vertex="1" parent="1"><mxGeometry x="440" y="870" width="100" height="40" as="geometry"/></mxCell><mxCell id="77" value="" style="endArrow=none;html=1;rounded=0;" edge="1" parent="1" source="73" target="4"><mxGeometry relative="1" as="geometry"><mxPoint x="220" y="740" as="sourcePoint"/><mxPoint x="380" y="740" as="targetPoint"/></mxGeometry></mxCell><mxCell id="78" value="" style="endArrow=none;html=1;rounded=0;" edge="1" parent="1" source="74" target="4"><mxGeometry relative="1" as="geometry"><mxPoint x="230" y="900" as="sourcePoint"/><mxPoint x="280" y="900" as="targetPoint"/></mxGeometry></mxCell><mxCell id="79" value="" style="endArrow=none;html=1;rounded=0;" edge="1" parent="1" source="75" target="4"><mxGeometry relative="1" as="geometry"><mxPoint x="274.75746338559554" y="970.8909768981387" as="sourcePoint"/><mxPoint x="314.44444444444446" y="920" as="targetPoint"/></mxGeometry></mxCell><mxCell id="80" value="" style="endArrow=none;html=1;rounded=0;" edge="1" parent="1" source="76" target="4"><mxGeometry relative="1" as="geometry"><mxPoint x="401.4304661822948" y="971.4304661822946" as="sourcePoint"/><mxPoint x="350.0000000000001" y="920" as="targetPoint"/></mxGeometry></mxCell></root></mxGraphModel></diagram></mxfile>